<?xml version="1.0" encoding="UTF-8"?>
<svg id="Layer_2" data-name="Layer 2" xmlns="http://www.w3.org/2000/svg" viewBox="0 0 45.99 9.27">
  <defs>
    <style>
      .cls-1 {
        fill: #b5b1ff;
      }
    </style>
  </defs>
  <g id="Layer_1-2" data-name="Layer 1">
    <rect class="cls-1" x="0" y="7.99" width="45.86" height="1.28"/>
    <g>
      <path d="M1.22,1.88c0,.15,.03,.27,.1,.37,.07,.1,.15,.19,.25,.27s.22,.15,.35,.2,.26,.11,.38,.17c.21,.09,.44,.17,.69,.26,.25,.08,.49,.18,.73,.27,.24,.1,.47,.21,.69,.34,.22,.12,.42,.27,.59,.44,.17,.17,.31,.36,.41,.58,.1,.22,.15,.47,.15,.76,0,.32-.08,.59-.24,.84-.16,.24-.37,.45-.61,.61-.25,.17-.52,.29-.81,.38-.3,.09-.58,.13-.85,.13-.51,0-1-.05-1.49-.16-.49-.11-.96-.28-1.4-.52l.31-.76c.37,.21,.78,.37,1.2,.47,.43,.1,.86,.15,1.28,.15,.17,0,.36-.02,.57-.06,.21-.04,.41-.11,.59-.2,.18-.1,.34-.22,.46-.37,.12-.15,.19-.33,.19-.54,0-.23-.06-.43-.19-.6-.12-.17-.29-.31-.49-.43-.21-.12-.44-.23-.7-.32-.26-.1-.53-.19-.8-.29-.27-.1-.54-.2-.8-.3-.26-.11-.49-.24-.7-.39-.21-.15-.37-.33-.5-.54-.12-.21-.19-.45-.19-.75,0-.34,.08-.63,.23-.87s.35-.44,.59-.58c.24-.15,.51-.25,.81-.32C2.32,.05,2.62,.01,2.91,.01c.4,0,.79,.05,1.19,.14,.4,.09,.78,.2,1.16,.32l-.26,.77c-.34-.12-.69-.22-1.04-.3-.35-.08-.71-.12-1.07-.12-.17,0-.35,.02-.54,.05-.19,.03-.37,.09-.54,.17-.17,.08-.31,.19-.42,.32-.11,.14-.17,.31-.17,.52Z"/>
      <path d="M15.73,.01l-1.64,7.49-3.22-4.22-3.21,4.22L6.01,.01h.83l1.23,5.6,2.79-3.67,2.81,3.67L14.89,.01h.84Z"/>
      <path d="M18.87,.01l4.06,7.49h-.94l-1.3-2.4h-3.66l-1.3,2.4h-.92L18.87,.01Zm1.39,4.28l-1.39-2.57-1.4,2.57h2.78Z"/>
      <path d="M29.39,.01h.81V7.5L24.31,1.9V7.5h-.81V.01l5.9,5.6V.01Z"/>
      <path d="M34.01,3.84c.22-.14,.4-.3,.55-.5,.15-.2,.28-.42,.39-.66,.11-.24,.22-.49,.33-.74,.11-.25,.24-.49,.38-.72s.32-.44,.53-.62c.21-.18,.48-.33,.79-.44s.7-.17,1.17-.17c.12,0,.24,0,.36,.02,.11,.01,.23,.03,.36,.04l-.1,.8c-.1-.01-.21-.03-.31-.03s-.21-.01-.31-.01c-.41,0-.75,.06-1.01,.17-.26,.11-.47,.27-.64,.46-.17,.19-.31,.41-.41,.65-.11,.24-.21,.49-.32,.74-.11,.25-.24,.5-.37,.75-.14,.25-.33,.46-.56,.65,.23,.74,.62,1.33,1.15,1.75,.53,.43,1.19,.66,1.97,.69l-.02,.81c-.45,0-.87-.08-1.27-.22-.4-.14-.76-.33-1.09-.58s-.62-.54-.86-.88c-.25-.34-.44-.72-.59-1.15-.15,.06-.3,.11-.46,.15-.16,.04-.32,.07-.48,.09v2.58h-.81V.01h.81V4.09c.34-.03,.62-.11,.84-.25Z"/>
      <path d="M44.99,.01h1l-2.87,3.92v3.58h-.81V3.93L39.42,.01h1.01l2.28,3.09L44.99,.01Z"/>
    </g>
  </g>
</svg>