<?xml version="1.0" encoding="UTF-8"?>
<svg id="Layer_2" data-name="Layer 2" xmlns="http://www.w3.org/2000/svg" viewBox="0 0 46.04 9.24">
  <defs>
    <style>
      .cls-1 {
        stroke: #000;
        stroke-miterlimit: 10;
        stroke-width: .75px;
      }
    </style>
  </defs>
  <g id="Layer_2-2" data-name="Layer 2">
    <path class="cls-1" d="M1.53,2.74c0,.15,.03,.27,.1,.37s.15,.19,.25,.27,.22,.15,.35,.2c.13,.05,.26,.11,.38,.17,.21,.09,.44,.17,.69,.26,.25,.08,.49,.18,.73,.27,.24,.1,.47,.21,.69,.34,.22,.12,.42,.27,.59,.44,.17,.17,.31,.36,.41,.58s.15,.47,.15,.76c0,.32-.08,.59-.24,.84-.16,.24-.37,.45-.61,.61-.25,.17-.52,.29-.81,.38-.3,.09-.58,.13-.85,.13-.51,0-1-.05-1.49-.16-.49-.11-.96-.28-1.4-.52l.31-.76c.37,.21,.78,.37,1.2,.47,.43,.1,.86,.15,1.28,.15,.17,0,.36-.02,.57-.06,.21-.04,.41-.11,.59-.2,.18-.1,.34-.22,.46-.37s.19-.33,.19-.54c0-.23-.06-.43-.19-.6-.12-.17-.29-.31-.49-.43-.21-.12-.44-.23-.7-.32-.26-.1-.53-.19-.8-.29s-.54-.2-.8-.3c-.26-.11-.49-.24-.7-.39-.21-.15-.37-.33-.5-.54-.12-.21-.19-.45-.19-.75,0-.34,.08-.63,.23-.87s.35-.44,.59-.58c.24-.15,.51-.25,.81-.32,.3-.07,.6-.11,.89-.11,.4,0,.79,.05,1.19,.14,.4,.09,.78,.2,1.16,.32l-.26,.77c-.34-.12-.69-.22-1.04-.3s-.71-.12-1.07-.12c-.17,0-.35,.02-.54,.05-.19,.03-.37,.09-.54,.17-.17,.08-.31,.19-.42,.32-.11,.14-.17,.31-.17,.52Z"/>
    <path class="cls-1" d="M16.04,.87l-1.64,7.49-3.22-4.22-3.21,4.22L6.32,.87h.83l1.23,5.6,2.79-3.67,2.81,3.67L15.2,.87s.84,0,.84,0Z"/>
    <path class="cls-1" d="M19.18,.87l4.06,7.49h-.94l-1.3-2.4h-3.66l-1.3,2.4h-.92L19.18,.87Zm1.39,4.28l-1.39-2.57-1.4,2.57h2.79Z"/>
    <path class="cls-1" d="M29.7,.87h.81v7.49l-5.89-5.6v5.6h-.81V.87l5.9,5.6V.87h-.01Z"/>
    <path class="cls-1" d="M33.32,4.7c.22-.14,.4-.3,.55-.5,.15-.2,.28-.42,.39-.66s.22-.49,.33-.74,.24-.49,.38-.72,.32-.44,.53-.62,.48-.33,.79-.44,.7-.17,1.17-.17c.12,0,.24,0,.36,.02,.11,0,.23,.03,.36,.04l-.1,.8c-.1,0-.21-.03-.31-.03s-.21,0-.31,0c-.41,0-.75,.06-1.01,.17-.26,.11-.47,.27-.64,.46-.17,.19-.31,.41-.41,.65-.11,.24-.21,.49-.32,.74s-.24,.5-.37,.75c-.14,.25-.33,.46-.56,.65,.23,.74,.62,1.33,1.15,1.75,.53,.43,1.19,.66,1.97,.69l-.02,.81c-.45,0-.87-.08-1.27-.22s-.76-.33-1.09-.58-.62-.54-.86-.88c-.25-.34-.44-.72-.59-1.15-.15,.06-.3,.11-.46,.15s-.32,.07-.48,.09v2.58h-.81V.87h.81V4.95c.34-.03,.62-.11,.84-.25h-.02Z"/>
    <path class="cls-1" d="M44.3,.87h1l-2.87,3.92v3.58h-.81v-3.58l-2.89-3.92h1.01l2.28,3.09,2.28-3.09Z"/>
  </g>
</svg>